<svg xmlns="http://www.w3.org/2000/svg" fill="none" viewBox="0 0 119 113" height="113" width="119">
  <rect fill="white" height="113" width="118.825"></rect>
  <path fill="#055179" d="M6.99764 103.424C6.89251 103.291 6.74865 103.195 6.56606 103.134C6.38899 103.067 6.22023 103.034 6.05977 103.034C5.9657 103.034 5.86887 103.045 5.76928 103.067C5.66968 103.089 5.57561 103.125 5.48708 103.175C5.39855 103.219 5.32662 103.28 5.27129 103.358C5.21596 103.435 5.18829 103.529 5.18829 103.64C5.18829 103.817 5.25469 103.953 5.38749 104.047C5.52028 104.141 5.68628 104.221 5.88547 104.287C6.0902 104.354 6.30876 104.42 6.54116 104.487C6.77355 104.553 6.98934 104.647 7.18854 104.769C7.39327 104.89 7.56203 105.054 7.69483 105.258C7.82762 105.463 7.89402 105.737 7.89402 106.08C7.89402 106.407 7.83316 106.692 7.71143 106.935C7.5897 107.178 7.4237 107.38 7.21344 107.541C7.00871 107.701 6.76802 107.82 6.49136 107.898C6.22023 107.975 5.93251 108.014 5.62818 108.014C5.24639 108.014 4.89227 107.956 4.56581 107.84C4.23935 107.723 3.93502 107.535 3.65283 107.275L4.57411 106.263C4.7069 106.44 4.8729 106.578 5.07209 106.678C5.27682 106.772 5.48708 106.819 5.70288 106.819C5.80801 106.819 5.91314 106.808 6.01827 106.786C6.12893 106.758 6.22576 106.719 6.30876 106.669C6.39729 106.62 6.46646 106.556 6.51626 106.479C6.57159 106.401 6.59925 106.31 6.59925 106.205C6.59925 106.028 6.53009 105.889 6.39176 105.79C6.25896 105.684 6.0902 105.596 5.88547 105.524C5.68075 105.452 5.45942 105.38 5.22149 105.308C4.98356 105.236 4.76224 105.139 4.55751 105.018C4.35278 104.896 4.18125 104.736 4.04292 104.536C3.91013 104.337 3.84373 104.074 3.84373 103.748C3.84373 103.432 3.90459 103.156 4.02632 102.918C4.15359 102.68 4.31958 102.481 4.52431 102.32C4.73457 102.16 4.97526 102.041 5.24639 101.963C5.51752 101.88 5.79694 101.839 6.08467 101.839C6.41666 101.839 6.73758 101.886 7.04744 101.98C7.3573 102.074 7.63673 102.232 7.88572 102.453L6.99764 103.424Z"></path>
  <path fill="#055179" d="M16.6438 101.988H17.9386V107.865H16.6438V101.988Z"></path>
  <path fill="#055179" d="M26.9181 101.988H28.6776L31.1759 106.072H31.1925V101.988H32.4872V107.865H30.7941L28.2295 103.681H28.2129V107.865H26.9181V101.988Z"></path>
  <path fill="#055179" d="M46.8079 107.45C46.4261 107.649 46.0278 107.793 45.6128 107.881C45.1978 107.97 44.7745 108.014 44.3429 108.014C43.8836 108.014 43.4604 107.942 43.073 107.798C42.6857 107.654 42.3509 107.45 42.0688 107.184C41.7866 106.913 41.5652 106.586 41.4048 106.205C41.2498 105.823 41.1724 105.397 41.1724 104.926C41.1724 104.456 41.2498 104.03 41.4048 103.648C41.5652 103.266 41.7866 102.943 42.0688 102.677C42.3509 102.406 42.6857 102.199 43.073 102.055C43.4604 101.911 43.8836 101.839 44.3429 101.839C44.8132 101.839 45.2448 101.897 45.6377 102.013C46.036 102.124 46.3846 102.318 46.6834 102.594L45.7705 103.59C45.5934 103.408 45.3942 103.269 45.1729 103.175C44.9515 103.081 44.6749 103.034 44.3429 103.034C44.0662 103.034 43.8145 103.081 43.5876 103.175C43.3663 103.269 43.1754 103.402 43.0149 103.574C42.8545 103.74 42.73 103.939 42.6414 104.171C42.5584 104.404 42.5169 104.655 42.5169 104.926C42.5169 105.203 42.5584 105.458 42.6414 105.69C42.73 105.917 42.8545 106.116 43.0149 106.288C43.1754 106.454 43.3663 106.584 43.5876 106.678C43.8145 106.772 44.0662 106.819 44.3429 106.819C44.6251 106.819 44.8685 106.788 45.0733 106.727C45.278 106.661 45.4412 106.595 45.563 106.528V105.574H44.5089V104.379H46.8079V107.45Z"></path>
  <path fill="#055179" d="M57.6833 101.988H58.754L61.3103 107.865H59.8495L59.3433 106.62H57.0608L56.5711 107.865H55.1436L57.6833 101.988ZM58.1813 103.698L57.4675 105.524H58.9034L58.1813 103.698Z"></path>
  <path fill="#055179" d="M69.7031 101.988H71.886C72.1903 101.988 72.478 102.016 72.7492 102.071C73.0203 102.127 73.2554 102.223 73.4546 102.362C73.6594 102.495 73.8198 102.677 73.936 102.91C74.0578 103.136 74.1186 103.424 74.1186 103.773C74.1186 104.116 74.0633 104.404 73.9526 104.636C73.842 104.868 73.6898 105.054 73.4961 105.192C73.3025 105.33 73.0728 105.43 72.8073 105.491C72.5417 105.546 72.2539 105.574 71.9441 105.574H70.9979V107.865H69.7031V101.988ZM70.9979 104.478H71.8611C71.9773 104.478 72.0879 104.467 72.1931 104.445C72.3037 104.423 72.4006 104.387 72.4836 104.337C72.5721 104.282 72.6413 104.21 72.6911 104.121C72.7464 104.027 72.7741 103.911 72.7741 103.773C72.7741 103.623 72.7381 103.504 72.6662 103.416C72.5998 103.322 72.5112 103.25 72.4006 103.2C72.2954 103.15 72.1765 103.12 72.0437 103.109C71.9109 103.092 71.7836 103.084 71.6619 103.084H70.9979V104.478Z"></path>
  <path fill="#055179" d="M82.4174 104.926C82.4174 104.456 82.4949 104.03 82.6498 103.648C82.8103 103.266 83.0316 102.943 83.3138 102.677C83.596 102.406 83.9308 102.199 84.3181 102.055C84.7054 101.911 85.1287 101.839 85.5879 101.839C86.0472 101.839 86.4705 101.911 86.8578 102.055C87.2451 102.199 87.5799 102.406 87.8621 102.677C88.1443 102.943 88.3628 103.266 88.5178 103.648C88.6782 104.03 88.7585 104.456 88.7585 104.926C88.7585 105.397 88.6782 105.823 88.5178 106.205C88.3628 106.586 88.1443 106.913 87.8621 107.184C87.5799 107.45 87.2451 107.654 86.8578 107.798C86.4705 107.942 86.0472 108.014 85.5879 108.014C85.1287 108.014 84.7054 107.942 84.3181 107.798C83.9308 107.654 83.596 107.45 83.3138 107.184C83.0316 106.913 82.8103 106.586 82.6498 106.205C82.4949 105.823 82.4174 105.397 82.4174 104.926ZM83.762 104.926C83.762 105.203 83.8035 105.458 83.8865 105.69C83.975 105.917 84.0995 106.116 84.26 106.288C84.4204 106.454 84.6113 106.584 84.8327 106.678C85.0595 106.772 85.3113 106.819 85.5879 106.819C85.8646 106.819 86.1136 106.772 86.3349 106.678C86.5618 106.584 86.7554 106.454 86.9159 106.288C87.0764 106.116 87.1981 105.917 87.2811 105.69C87.3696 105.458 87.4139 105.203 87.4139 104.926C87.4139 104.655 87.3696 104.404 87.2811 104.171C87.1981 103.939 87.0764 103.74 86.9159 103.574C86.7554 103.402 86.5618 103.269 86.3349 103.175C86.1136 103.081 85.8646 103.034 85.5879 103.034C85.3113 103.034 85.0595 103.081 84.8327 103.175C84.6113 103.269 84.4204 103.402 84.26 103.574C84.0995 103.74 83.975 103.939 83.8865 104.171C83.8035 104.404 83.762 104.655 83.762 104.926Z"></path>
  <path fill="#055179" d="M97.4403 101.988H99.7144C100.013 101.988 100.295 102.019 100.561 102.08C100.832 102.135 101.067 102.232 101.266 102.37C101.471 102.503 101.632 102.686 101.748 102.918C101.87 103.145 101.93 103.43 101.93 103.773C101.93 104.188 101.823 104.542 101.607 104.835C101.391 105.123 101.076 105.305 100.661 105.383L102.155 107.865H100.603L99.3741 105.516H98.7351V107.865H97.4403V101.988ZM98.7351 104.42H99.4986C99.6148 104.42 99.7366 104.417 99.8638 104.412C99.9966 104.401 100.116 104.376 100.221 104.337C100.326 104.293 100.412 104.226 100.478 104.138C100.55 104.049 100.586 103.925 100.586 103.764C100.586 103.615 100.555 103.496 100.495 103.408C100.434 103.319 100.356 103.253 100.262 103.208C100.168 103.159 100.06 103.125 99.9385 103.109C99.8168 103.092 99.6978 103.084 99.5816 103.084H98.7351V104.42Z"></path>
  <path fill="#055179" d="M110.674 101.988H114.666V103.183H111.969V104.279H114.517V105.474H111.969V106.669H114.815V107.865H110.674V101.988Z"></path>
  <rect fill="#1A88A0" transform="rotate(-90 27.5645 96.8673)" height="87.5627" width="93.3725" y="96.8673" x="27.5645" opacity="0.9"></rect>
  <rect fill="#004973" transform="rotate(-90 3.49512 96.8673)" height="90.8826" width="93.3725" y="96.8673" x="3.49512" opacity="0.9"></rect>
  <path fill="white" d="M14.6417 42.3212C14.8575 42.6449 15.1314 42.8856 15.4634 43.0433C15.8037 43.1927 16.1523 43.2674 16.5092 43.2674C16.7084 43.2674 16.9117 43.2383 17.1192 43.1802C17.3267 43.1138 17.5135 43.0184 17.6794 42.8939C17.8537 42.7694 17.9948 42.6159 18.1027 42.4333C18.2106 42.2507 18.2646 42.039 18.2646 41.7983C18.2646 41.458 18.1567 41.2007 17.9409 41.0264C17.7251 40.8439 17.4554 40.6945 17.1317 40.5783C16.8163 40.4538 16.4677 40.3376 16.0859 40.2297C15.7124 40.1135 15.3638 39.9558 15.0401 39.7566C14.7247 39.5574 14.4591 39.2918 14.2433 38.9598C14.0275 38.6195 13.9196 38.163 13.9196 37.5903C13.9196 37.333 13.9736 37.0592 14.0815 36.7687C14.1977 36.4782 14.3761 36.2126 14.6168 35.9719C14.8575 35.7312 15.1646 35.532 15.5381 35.3743C15.9199 35.2083 16.3764 35.1253 16.9076 35.1253C17.389 35.1253 17.8496 35.1917 18.2895 35.3245C18.7294 35.4573 19.1153 35.727 19.4473 36.1337L18.4762 37.0177C18.3268 36.7853 18.1152 36.5985 17.8413 36.4574C17.5674 36.3163 17.2562 36.2458 16.9076 36.2458C16.5756 36.2458 16.2975 36.2914 16.0734 36.3827C15.8576 36.4657 15.6833 36.5778 15.5506 36.7189C15.4178 36.8517 15.3223 36.9969 15.2642 37.1546C15.2144 37.3123 15.1895 37.4575 15.1895 37.5903C15.1895 37.9638 15.2974 38.2502 15.5132 38.4494C15.729 38.6486 15.9946 38.8104 16.31 38.9349C16.6337 39.0594 16.9823 39.1714 17.3558 39.271C17.7375 39.3706 18.0861 39.5117 18.4015 39.6943C18.7252 39.8686 18.995 40.1093 19.2108 40.4164C19.4266 40.7152 19.5344 41.1302 19.5344 41.6614C19.5344 42.0847 19.4515 42.4665 19.2855 42.8068C19.1278 43.147 18.912 43.4334 18.6381 43.6658C18.3642 43.8982 18.0405 44.0766 17.667 44.2011C17.2935 44.3256 16.8951 44.3879 16.4718 44.3879C15.9074 44.3879 15.3721 44.2883 14.8658 44.0891C14.3595 43.8899 13.957 43.5828 13.6582 43.1678L14.6417 42.3212Z"></path>
  <path fill="white" d="M27.3362 44.3879C26.6639 44.3879 26.0456 44.2717 25.4812 44.0393C24.9168 43.7986 24.4313 43.4707 24.0246 43.0557C23.6262 42.6408 23.3108 42.1511 23.0784 41.5867C22.8543 41.0223 22.7423 40.4123 22.7423 39.7566C22.7423 39.1009 22.8543 38.4909 23.0784 37.9265C23.3108 37.3621 23.6262 36.8724 24.0246 36.4574C24.4313 36.0424 24.9168 35.7187 25.4812 35.4863C26.0456 35.2457 26.6639 35.1253 27.3362 35.1253C28.0085 35.1253 28.6268 35.2457 29.1912 35.4863C29.7556 35.7187 30.237 36.0424 30.6354 36.4574C31.0421 36.8724 31.3575 37.3621 31.5815 37.9265C31.8139 38.4909 31.9301 39.1009 31.9301 39.7566C31.9301 40.4123 31.8139 41.0223 31.5815 41.5867C31.3575 42.1511 31.0421 42.6408 30.6354 43.0557C30.237 43.4707 29.7556 43.7986 29.1912 44.0393C28.6268 44.2717 28.0085 44.3879 27.3362 44.3879ZM27.3362 43.2674C27.8425 43.2674 28.299 43.1761 28.7057 42.9935C29.1124 42.8026 29.461 42.5495 29.7514 42.2341C30.0419 41.9187 30.266 41.5493 30.4237 41.126C30.5814 40.6945 30.6603 40.238 30.6603 39.7566C30.6603 39.2752 30.5814 38.8229 30.4237 38.3996C30.266 37.968 30.0419 37.5945 29.7514 37.2791C29.461 36.9637 29.1124 36.7147 28.7057 36.5321C28.299 36.3412 27.8425 36.2458 27.3362 36.2458C26.8299 36.2458 26.3734 36.3412 25.9667 36.5321C25.5601 36.7147 25.2115 36.9637 24.921 37.2791C24.6305 37.5945 24.4064 37.968 24.2487 38.3996C24.091 38.8229 24.0121 39.2752 24.0121 39.7566C24.0121 40.238 24.091 40.6945 24.2487 41.126C24.4064 41.5493 24.6305 41.9187 24.921 42.2341C25.2115 42.5495 25.5601 42.8026 25.9667 42.9935C26.3734 43.1761 26.8299 43.2674 27.3362 43.2674Z"></path>
  <path fill="white" d="M41.7782 37.2542C41.5292 36.9305 41.2138 36.6815 40.832 36.5072C40.4503 36.3329 40.056 36.2458 39.6493 36.2458C39.1513 36.2458 38.699 36.3412 38.2923 36.5321C37.8939 36.7147 37.5495 36.9679 37.259 37.2915C36.9768 37.6152 36.7568 37.997 36.5992 38.4369C36.4415 38.8685 36.3626 39.3333 36.3626 39.8313C36.3626 40.2961 36.4373 40.736 36.5867 41.1509C36.7361 41.5659 36.9519 41.9311 37.2341 42.2465C37.5163 42.5619 37.8607 42.8109 38.2674 42.9935C38.6741 43.1761 39.1347 43.2674 39.6493 43.2674C40.1556 43.2674 40.5996 43.1636 40.9814 42.9561C41.3632 42.7487 41.6869 42.4582 41.9525 42.0847L42.9609 42.8441C42.8945 42.9354 42.7783 43.0682 42.6123 43.2425C42.4464 43.4085 42.2264 43.5786 41.9525 43.7529C41.6786 43.9189 41.3466 44.0642 40.9565 44.1887C40.5748 44.3215 40.1307 44.3879 39.6244 44.3879C38.9272 44.3879 38.2965 44.2551 37.7321 43.9895C37.176 43.7239 36.6988 43.3753 36.3004 42.9437C35.9103 42.5121 35.6115 42.0266 35.404 41.4871C35.1965 40.9393 35.0927 40.3874 35.0927 39.8313C35.0927 39.1507 35.2048 38.5241 35.4289 37.9514C35.653 37.3704 35.9642 36.8724 36.3626 36.4574C36.7693 36.0341 37.2548 35.7063 37.8192 35.4739C38.3836 35.2415 39.0061 35.1253 39.6867 35.1253C40.2677 35.1253 40.8362 35.2374 41.3923 35.4614C41.9567 35.6855 42.4173 36.03 42.7742 36.4948L41.7782 37.2542Z"></path>
  <path fill="white" d="M46.3983 35.3494H47.5935V44.1638H46.3983V35.3494Z"></path>
  <path fill="white" d="M54.6191 35.3494H55.7022L59.4745 44.1638H58.0801L57.1962 41.9851H53.0006L52.1291 44.1638H50.7348L54.6191 35.3494ZM56.7604 40.9393L55.1171 36.8932H55.0922L53.4239 40.9393H56.7604Z"></path>
  <path fill="white" d="M62.613 35.3494H63.8082V43.0433H67.8543V44.1638H62.613V35.3494Z"></path>
  <path fill="white" d="M14.6417 56.4308C14.8575 56.7545 15.1314 56.9952 15.4634 57.1529C15.8037 57.3023 16.1523 57.377 16.5092 57.377C16.7084 57.377 16.9117 57.348 17.1192 57.2899C17.3267 57.2235 17.5135 57.128 17.6794 57.0035C17.8537 56.879 17.9948 56.7255 18.1027 56.5429C18.2106 56.3603 18.2646 56.1487 18.2646 55.908C18.2646 55.5677 18.1567 55.3104 17.9409 55.1361C17.7251 54.9535 17.4554 54.8041 17.1317 54.6879C16.8163 54.5634 16.4677 54.4472 16.0859 54.3393C15.7124 54.2231 15.3638 54.0654 15.0401 53.8662C14.7247 53.667 14.4591 53.4014 14.2433 53.0694C14.0275 52.7291 13.9196 52.2727 13.9196 51.7C13.9196 51.4427 13.9736 51.1688 14.0815 50.8783C14.1977 50.5878 14.3761 50.3222 14.6168 50.0815C14.8575 49.8408 15.1646 49.6416 15.5381 49.4839C15.9199 49.3179 16.3764 49.2349 16.9076 49.2349C17.389 49.2349 17.8496 49.3013 18.2895 49.4341C18.7294 49.5669 19.1153 49.8367 19.4473 50.2434L18.4762 51.1273C18.3268 50.8949 18.1152 50.7081 17.8413 50.567C17.5674 50.426 17.2562 50.3554 16.9076 50.3554C16.5756 50.3554 16.2975 50.4011 16.0734 50.4923C15.8576 50.5753 15.6833 50.6874 15.5506 50.8285C15.4178 50.9613 15.3223 51.1065 15.2642 51.2642C15.2144 51.4219 15.1895 51.5672 15.1895 51.7C15.1895 52.0735 15.2974 52.3598 15.5132 52.559C15.729 52.7582 15.9946 52.92 16.31 53.0445C16.6337 53.169 16.9823 53.2811 17.3558 53.3807C17.7375 53.4803 18.0861 53.6214 18.4015 53.804C18.7252 53.9783 18.995 54.219 19.2108 54.526C19.4266 54.8248 19.5344 55.2398 19.5344 55.771C19.5344 56.1943 19.4515 56.5761 19.2855 56.9164C19.1278 57.2567 18.912 57.543 18.6381 57.7754C18.3642 58.0078 18.0405 58.1862 17.667 58.3107C17.2935 58.4352 16.8951 58.4975 16.4718 58.4975C15.9074 58.4975 15.3721 58.3979 14.8658 58.1987C14.3595 57.9995 13.957 57.6924 13.6582 57.2774L14.6417 56.4308Z"></path>
  <path fill="white" d="M29.4278 51.3638C29.1788 51.0401 28.8634 50.7911 28.4816 50.6168C28.0998 50.4426 27.7056 50.3554 27.2989 50.3554C26.8009 50.3554 26.3485 50.4509 25.9418 50.6417C25.5435 50.8243 25.199 51.0775 24.9085 51.4012C24.6263 51.7249 24.4064 52.1067 24.2487 52.5465C24.091 52.9781 24.0121 53.4429 24.0121 53.9409C24.0121 54.4057 24.0868 54.8456 24.2362 55.2606C24.3856 55.6756 24.6014 56.0408 24.8836 56.3561C25.1658 56.6715 25.5103 56.9205 25.9169 57.1031C26.3236 57.2857 26.7843 57.377 27.2989 57.377C27.8051 57.377 28.2492 57.2733 28.631 57.0658C29.0128 56.8583 29.3365 56.5678 29.6021 56.1943L30.6105 56.9537C30.5441 57.045 30.4279 57.1778 30.2619 57.3521C30.0959 57.5181 29.8759 57.6883 29.6021 57.8626C29.3282 58.0286 28.9962 58.1738 28.6061 58.2983C28.2243 58.4311 27.7802 58.4975 27.274 58.4975C26.5768 58.4975 25.946 58.3647 25.3816 58.0991C24.8255 57.8335 24.3483 57.4849 23.9499 57.0533C23.5598 56.6217 23.261 56.1362 23.0535 55.5967C22.846 55.0489 22.7423 54.497 22.7423 53.9409C22.7423 53.2603 22.8543 52.6337 23.0784 52.061C23.3025 51.48 23.6138 50.982 24.0121 50.567C24.4188 50.1438 24.9044 49.8159 25.4688 49.5835C26.0331 49.3511 26.6556 49.2349 27.3362 49.2349C27.9172 49.2349 28.4857 49.347 29.0418 49.5711C29.6062 49.7952 30.0668 50.1396 30.4237 50.6044L29.4278 51.3638Z"></path>
  <path fill="white" d="M34.0478 49.459H35.243V58.2734H34.0478V49.459Z"></path>
  <path fill="white" d="M39.5048 49.459H45.1943V50.5795H40.7V53.2064H44.883V54.3268H40.7V57.1529H45.4184V58.2734H39.5048V49.459Z"></path>
  <path fill="white" d="M49.1076 49.459H50.6762L55.5316 56.7047H55.5565V49.459H56.7517V58.2734H55.2328L50.3276 51.0277H50.3027V58.2734H49.1076V49.459Z"></path>
  <path fill="white" d="M67.1459 51.3638C66.8969 51.0401 66.5815 50.7911 66.1997 50.6168C65.8179 50.4426 65.4237 50.3554 65.017 50.3554C64.519 50.3554 64.0667 50.4509 63.66 50.6417C63.2616 50.8243 62.9171 51.0775 62.6267 51.4012C62.3445 51.7249 62.1245 52.1067 61.9668 52.5465C61.8091 52.9781 61.7303 53.4429 61.7303 53.9409C61.7303 54.4057 61.805 54.8456 61.9544 55.2606C62.1038 55.6756 62.3196 56.0408 62.6018 56.3561C62.8839 56.6715 63.2284 56.9205 63.6351 57.1031C64.0418 57.2857 64.5024 57.377 65.017 57.377C65.5233 57.377 65.9673 57.2733 66.3491 57.0658C66.7309 56.8583 67.0546 56.5678 67.3202 56.1943L68.3286 56.9537C68.2622 57.045 68.146 57.1778 67.98 57.3521C67.814 57.5181 67.5941 57.6883 67.3202 57.8626C67.0463 58.0286 66.7143 58.1738 66.3242 58.2983C65.9424 58.4311 65.4984 58.4975 64.9921 58.4975C64.2949 58.4975 63.6641 58.3647 63.0997 58.0991C62.5437 57.8335 62.0664 57.4849 61.668 57.0533C61.2779 56.6217 60.9791 56.1362 60.7717 55.5967C60.5642 55.0489 60.4604 54.497 60.4604 53.9409C60.4604 53.2603 60.5725 52.6337 60.7966 52.061C61.0206 51.48 61.3319 50.982 61.7303 50.567C62.137 50.1438 62.6225 49.8159 63.1869 49.5835C63.7513 49.3511 64.3738 49.2349 65.0543 49.2349C65.6353 49.2349 66.2039 49.347 66.7599 49.5711C67.3243 49.7952 67.785 50.1396 68.1419 50.6044L67.1459 51.3638Z"></path>
  <path fill="white" d="M71.766 49.459H77.4555V50.5795H72.9611V53.2064H77.1442V54.3268H72.9611V57.1529H77.6796V58.2734H71.766V49.459Z"></path>
  <path fill="white" d="M14.3803 63.7761H17.4803C18.0446 63.7761 18.5094 63.855 18.8746 64.0127C19.2398 64.1621 19.5261 64.3571 19.7336 64.5978C19.9494 64.8302 20.0988 65.0958 20.1818 65.3946C20.2648 65.6851 20.3063 65.9673 20.3063 66.2412C20.3063 66.5234 20.2565 66.7973 20.1569 67.0629C20.0573 67.3202 19.9121 67.5567 19.7212 67.7725C19.5386 67.98 19.3104 68.1584 19.0365 68.3078C18.7709 68.4489 18.4721 68.5361 18.1401 68.5693L20.6425 72.5905H19.1485L16.9076 68.7062H15.5755V72.5905H14.3803V63.7761ZM15.5755 67.6604H17.1441C17.3765 67.6604 17.6047 67.6438 17.8288 67.6106C18.0612 67.5691 18.2646 67.4986 18.4389 67.399C18.6215 67.2994 18.7667 67.1583 18.8746 66.9757C18.9825 66.7848 19.0365 66.54 19.0365 66.2412C19.0365 65.9424 18.9825 65.7017 18.8746 65.5191C18.7667 65.3282 18.6215 65.183 18.4389 65.0834C18.2646 64.9838 18.0612 64.9174 17.8288 64.8842C17.6047 64.8427 17.3765 64.8219 17.1441 64.8219H15.5755V67.6604Z"></path>
  <path fill="white" d="M23.9831 63.7761H29.6726V64.8966H25.1782V67.5235H29.3613V68.644H25.1782V71.47H29.8967V72.5905H23.9831V63.7761Z"></path>
  <path fill="white" d="M33.8473 70.748C34.0631 71.0717 34.337 71.3124 34.669 71.47C35.0093 71.6194 35.3578 71.6941 35.7147 71.6941C35.9139 71.6941 36.1173 71.6651 36.3248 71.607C36.5323 71.5406 36.719 71.4451 36.885 71.3207C37.0593 71.1962 37.2004 71.0426 37.3083 70.86C37.4162 70.6774 37.4701 70.4658 37.4701 70.2251C37.4701 69.8848 37.3622 69.6275 37.1465 69.4532C36.9307 69.2706 36.6609 69.1212 36.3372 69.005C36.0218 68.8805 35.6732 68.7643 35.2915 68.6564C34.918 68.5402 34.5694 68.3825 34.2457 68.1833C33.9303 67.9841 33.6647 67.7185 33.4489 67.3866C33.2331 67.0463 33.1252 66.5898 33.1252 66.0171C33.1252 65.7598 33.1792 65.4859 33.2871 65.1954C33.4033 64.9049 33.5817 64.6393 33.8224 64.3986C34.0631 64.1579 34.3702 63.9587 34.7437 63.801C35.1255 63.6351 35.5819 63.5521 36.1131 63.5521C36.5945 63.5521 37.0552 63.6185 37.495 63.7512C37.9349 63.884 38.3209 64.1538 38.6529 64.5605L37.6818 65.4444C37.5324 65.212 37.3207 65.0253 37.0469 64.8842C36.773 64.7431 36.4617 64.6725 36.1131 64.6725C35.7811 64.6725 35.5031 64.7182 35.279 64.8095C35.0632 64.8925 34.8889 65.0045 34.7561 65.1456C34.6233 65.2784 34.5279 65.4237 34.4698 65.5814C34.42 65.739 34.3951 65.8843 34.3951 66.0171C34.3951 66.3906 34.503 66.6769 34.7188 66.8761C34.9346 67.0753 35.2002 67.2372 35.5155 67.3617C35.8392 67.4862 36.1878 67.5982 36.5613 67.6978C36.9431 67.7974 37.2917 67.9385 37.6071 68.1211C37.9308 68.2954 38.2005 68.5361 38.4163 68.8432C38.6321 69.142 38.74 69.5569 38.74 70.0881C38.74 70.5114 38.657 70.8932 38.491 71.2335C38.3333 71.5738 38.1175 71.8601 37.8436 72.0925C37.5697 72.3249 37.2461 72.5034 36.8726 72.6279C36.4991 72.7524 36.1007 72.8146 35.6774 72.8146C35.113 72.8146 34.5777 72.715 34.0714 72.5158C33.5651 72.3166 33.1626 72.0095 32.8638 71.5945L33.8473 70.748Z"></path>
  <path fill="white" d="M42.4956 63.7761H48.1851V64.8966H43.6908V67.5235H47.8739V68.644H43.6908V71.47H48.4092V72.5905H42.4956V63.7761Z"></path>
  <path fill="white" d="M54.8622 63.7761H55.9454L59.7176 72.5905H58.3232L57.4393 70.4118H53.2438L52.3723 72.5905H50.9779L54.8622 63.7761ZM57.0036 69.3661L55.3602 65.3199H55.3353L53.6671 69.3661H57.0036Z"></path>
  <path fill="white" d="M62.8562 63.7761H65.9562C66.5205 63.7761 66.9853 63.855 67.3505 64.0127C67.7157 64.1621 68.0021 64.3571 68.2096 64.5978C68.4253 64.8302 68.5747 65.0958 68.6577 65.3946C68.7407 65.6851 68.7822 65.9673 68.7822 66.2412C68.7822 66.5234 68.7324 66.7973 68.6328 67.0629C68.5332 67.3202 68.388 67.5567 68.1971 67.7725C68.0145 67.98 67.7863 68.1584 67.5124 68.3078C67.2468 68.4489 66.948 68.5361 66.616 68.5693L69.1184 72.5905H67.6244L65.3835 68.7062H64.0514V72.5905H62.8562V63.7761ZM64.0514 67.6604H65.62C65.8524 67.6604 66.0807 67.6438 66.3048 67.6106C66.5371 67.5691 66.7405 67.4986 66.9148 67.399C67.0974 67.2994 67.2426 67.1583 67.3505 66.9757C67.4584 66.7848 67.5124 66.54 67.5124 66.2412C67.5124 65.9424 67.4584 65.7017 67.3505 65.5191C67.2426 65.3282 67.0974 65.183 66.9148 65.0834C66.7405 64.9838 66.5371 64.9174 66.3048 64.8842C66.0807 64.8427 65.8524 64.8219 65.62 64.8219H64.0514V67.6604Z"></path>
  <path fill="white" d="M78.5967 65.6809C78.3477 65.3573 78.0323 65.1083 77.6505 64.934C77.2687 64.7597 76.8745 64.6725 76.4678 64.6725C75.9698 64.6725 75.5174 64.768 75.1108 64.9589C74.7124 65.1415 74.3679 65.3946 74.0774 65.7183C73.7952 66.042 73.5753 66.4238 73.4176 66.8637C73.2599 67.2953 73.1811 67.76 73.1811 68.258C73.1811 68.7228 73.2558 69.1627 73.4052 69.5777C73.5545 69.9927 73.7703 70.3579 74.0525 70.6733C74.3347 70.9887 74.6792 71.2377 75.0859 71.4202C75.4925 71.6028 75.9532 71.6941 76.4678 71.6941C76.9741 71.6941 77.4181 71.5904 77.7999 71.3829C78.1817 71.1754 78.5054 70.8849 78.771 70.5114L79.7794 71.2709C79.713 71.3621 79.5968 71.4949 79.4308 71.6692C79.2648 71.8352 79.0449 72.0054 78.771 72.1797C78.4971 72.3457 78.1651 72.4909 77.775 72.6154C77.3932 72.7482 76.9492 72.8146 76.4429 72.8146C75.7457 72.8146 75.1149 72.6818 74.5505 72.4162C73.9944 72.1506 73.5172 71.802 73.1188 71.3705C72.7287 70.9389 72.4299 70.4533 72.2224 69.9138C72.0149 69.3661 71.9112 68.8141 71.9112 68.258C71.9112 67.5774 72.0232 66.9508 72.2473 66.3781C72.4714 65.7971 72.7827 65.2992 73.1811 64.8842C73.5877 64.4609 74.0733 64.133 74.6377 63.9006C75.2021 63.6683 75.8245 63.5521 76.5051 63.5521C77.0861 63.5521 77.6546 63.6641 78.2107 63.8882C78.7751 64.1123 79.2358 64.4567 79.5926 64.9215L78.5967 65.6809Z"></path>
  <path fill="white" d="M83.2168 63.7761H84.4119V67.4364H88.981V63.7761H90.1761V72.5905H88.981V68.5568H84.4119V72.5905H83.2168V63.7761Z"></path>
  <path fill="white" d="M20.518 79.7906C20.269 79.4669 19.9536 79.2179 19.5718 79.0436C19.19 78.8693 18.7958 78.7822 18.3891 78.7822C17.8911 78.7822 17.4388 78.8776 17.0321 79.0685C16.6337 79.2511 16.2892 79.5042 15.9987 79.8279C15.7165 80.1516 15.4966 80.5334 15.3389 80.9733C15.1812 81.4049 15.1024 81.8697 15.1024 82.3677C15.1024 82.8324 15.1771 83.2723 15.3265 83.6873C15.4759 84.1023 15.6916 84.4675 15.9738 84.7829C16.256 85.0983 16.6005 85.3473 17.0072 85.5299C17.4139 85.7125 17.8745 85.8038 18.3891 85.8038C18.8954 85.8038 19.3394 85.7 19.7212 85.4925C20.103 85.285 20.4267 84.9945 20.6923 84.621L21.7007 85.3805C21.6343 85.4718 21.5181 85.6046 21.3521 85.7789C21.1861 85.9449 20.9662 86.115 20.6923 86.2893C20.4184 86.4553 20.0864 86.6005 19.6963 86.725C19.3145 86.8578 18.8705 86.9242 18.3642 86.9242C17.667 86.9242 17.0362 86.7914 16.4718 86.5258C15.9157 86.2603 15.4385 85.9117 15.0401 85.4801C14.65 85.0485 14.3512 84.563 14.1437 84.0235C13.9362 83.4757 13.8325 82.9237 13.8325 82.3677C13.8325 81.6871 13.9445 81.0604 14.1686 80.4878C14.3927 79.9068 14.704 79.4088 15.1024 78.9938C15.5091 78.5705 15.9946 78.2427 16.559 78.0103C17.1234 77.7779 17.7458 77.6617 18.4264 77.6617C19.0074 77.6617 19.5759 77.7737 20.132 77.9978C20.6964 78.2219 21.1571 78.5664 21.5139 79.0311L20.518 79.7906Z"></path>
  <path fill="white" d="M29.1842 86.9242C28.5119 86.9242 27.8936 86.808 27.3292 86.5756C26.7648 86.335 26.2793 86.0071 25.8726 85.5921C25.4742 85.1771 25.1588 84.6874 24.9264 84.1231C24.7023 83.5587 24.5903 82.9486 24.5903 82.293C24.5903 81.6373 24.7023 81.0272 24.9264 80.4629C25.1588 79.8985 25.4742 79.4088 25.8726 78.9938C26.2793 78.5788 26.7648 78.2551 27.3292 78.0227C27.8936 77.782 28.5119 77.6617 29.1842 77.6617C29.8565 77.6617 30.4748 77.782 31.0392 78.0227C31.6036 78.2551 32.085 78.5788 32.4834 78.9938C32.8901 79.4088 33.2055 79.8985 33.4295 80.4629C33.6619 81.0272 33.7781 81.6373 33.7781 82.293C33.7781 82.9486 33.6619 83.5587 33.4295 84.1231C33.2055 84.6874 32.8901 85.1771 32.4834 85.5921C32.085 86.0071 31.6036 86.335 31.0392 86.5756C30.4748 86.808 29.8565 86.9242 29.1842 86.9242ZM29.1842 85.8038C29.6905 85.8038 30.147 85.7125 30.5537 85.5299C30.9604 85.339 31.309 85.0858 31.5994 84.7704C31.8899 84.4551 32.114 84.0857 32.2717 83.6624C32.4294 83.2308 32.5083 82.7743 32.5083 82.293C32.5083 81.8116 32.4294 81.3592 32.2717 80.9359C32.114 80.5044 31.8899 80.1309 31.5994 79.8155C31.309 79.5001 30.9604 79.2511 30.5537 79.0685C30.147 78.8776 29.6905 78.7822 29.1842 78.7822C28.6779 78.7822 28.2214 78.8776 27.8147 79.0685C27.4081 79.2511 27.0595 79.5001 26.769 79.8155C26.4785 80.1309 26.2544 80.5044 26.0967 80.9359C25.939 81.3592 25.8601 81.8116 25.8601 82.293C25.8601 82.7743 25.939 83.2308 26.0967 83.6624C26.2544 84.0857 26.4785 84.4551 26.769 84.7704C27.0595 85.0858 27.4081 85.339 27.8147 85.5299C28.2214 85.7125 28.6779 85.8038 29.1842 85.8038Z"></path>
  <path fill="white" d="M38.5219 77.8858V83.2889C38.5219 83.5628 38.5592 83.8492 38.6339 84.148C38.7086 84.4385 38.8331 84.7082 39.0074 84.9572C39.1817 85.2062 39.4099 85.4095 39.6921 85.5672C39.9743 85.7249 40.3229 85.8038 40.7379 85.8038C41.1529 85.8038 41.5015 85.7249 41.7837 85.5672C42.0659 85.4095 42.2941 85.2062 42.4684 84.9572C42.6427 84.7082 42.7672 84.4385 42.8419 84.148C42.9166 83.8492 42.9539 83.5628 42.9539 83.2889V77.8858H44.1491V83.4757C44.1491 83.9903 44.062 84.4592 43.8877 84.8825C43.7134 85.2975 43.4727 85.6585 43.1656 85.9656C42.8585 86.2727 42.4974 86.5093 42.0825 86.6752C41.6675 86.8412 41.2193 86.9242 40.7379 86.9242C40.2565 86.9242 39.8083 86.8412 39.3933 86.6752C38.9783 86.5093 38.6173 86.2727 38.3102 85.9656C38.0031 85.6585 37.7624 85.2975 37.5881 84.8825C37.4138 84.4592 37.3267 83.9903 37.3267 83.4757V77.8858H38.5219Z"></path>
  <path fill="white" d="M48.2463 77.8858H49.815L54.6703 85.1315H54.6952V77.8858H55.8904V86.7001H54.3715L49.4664 79.4544H49.4415V86.7001H48.2463V77.8858Z"></path>
  <path fill="white" d="M66.2846 79.7906C66.0356 79.4669 65.7202 79.2179 65.3384 79.0436C64.9567 78.8693 64.5624 78.7822 64.1557 78.7822C63.6577 78.7822 63.2054 78.8776 62.7987 79.0685C62.4003 79.2511 62.0559 79.5042 61.7654 79.8279C61.4832 80.1516 61.2633 80.5334 61.1056 80.9733C60.9479 81.4049 60.869 81.8697 60.869 82.3677C60.869 82.8324 60.9437 83.2723 61.0931 83.6873C61.2425 84.1023 61.4583 84.4675 61.7405 84.7829C62.0227 85.0983 62.3671 85.3473 62.7738 85.5299C63.1805 85.7125 63.6411 85.8038 64.1557 85.8038C64.662 85.8038 65.106 85.7 65.4878 85.4925C65.8696 85.285 66.1933 84.9945 66.4589 84.621L67.4673 85.3805C67.4009 85.4718 67.2847 85.6046 67.1187 85.7789C66.9527 85.9449 66.7328 86.115 66.4589 86.2893C66.185 86.4553 65.853 86.6005 65.4629 86.725C65.0812 86.8578 64.6371 86.9242 64.1308 86.9242C63.4336 86.9242 62.8029 86.7914 62.2385 86.5258C61.6824 86.2603 61.2052 85.9117 60.8068 85.4801C60.4167 85.0485 60.1179 84.563 59.9104 84.0235C59.7029 83.4757 59.5991 82.9237 59.5991 82.3677C59.5991 81.6871 59.7112 81.0604 59.9353 80.4878C60.1594 79.9068 60.4706 79.4088 60.869 78.9938C61.2757 78.5705 61.7612 78.2427 62.3256 78.0103C62.89 77.7779 63.5125 77.6617 64.1931 77.6617C64.7741 77.6617 65.3426 77.7737 65.8987 77.9978C66.4631 78.2219 66.9237 78.5664 67.2806 79.0311L66.2846 79.7906Z"></path>
  <path fill="white" d="M70.9047 77.8858H72.0999V86.7001H70.9047V77.8858Z"></path>
  <path fill="white" d="M76.3617 77.8858H77.5568V85.5797H81.603V86.7001H76.3617V77.8858Z"></path>
</svg>